<?xml version="1.0" standalone="no"?><svg xmlns="http://www.w3.org/2000/svg" viewBox="0 0 1440 320"><path fill="#ecf0fc" fill-opacity="0.8" d="M0,32L40,69.3C80,107,160,181,240,186.7C320,192,400,128,480,133.3C560,139,640,213,720,234.7C800,256,880,224,960,202.7C1040,181,1120,171,1200,160C1280,149,1360,139,1400,133.3L1440,128L1440,320L1400,320C1360,320,1280,320,1200,320C1120,320,1040,320,960,320C880,320,800,320,720,320C640,320,560,320,480,320C400,320,320,320,240,320C160,320,80,320,40,320L0,320Z"></path></svg>